<svg width="880" height="118" viewBox="0 0 880 118" fill="none" xmlns="http://www.w3.org/2000/svg">
<path d="M9.08 92L0.12 28.512H16.12L21.752 81.12H24.056L32.248 28.512H58.104L66.296 81.12H68.6L74.232 28.512H90.232L81.272 92H54.52L46.328 39.392H44.024L35.832 92H9.08ZM115.087 93.792C110.564 93.792 106.511 93.024 102.927 91.488C99.343 89.8667 96.4843 87.5627 94.351 84.576C92.303 81.504 91.279 77.792 91.279 73.44C91.279 69.088 92.303 65.4613 94.351 62.56C96.4843 59.5733 99.3857 57.3547 103.055 55.904C106.81 54.368 111.076 53.6 115.855 53.6H133.263V50.016C133.263 47.0293 132.324 44.5973 130.447 42.72C128.57 40.7573 125.583 39.776 121.487 39.776C117.476 39.776 114.49 40.7147 112.527 42.592C110.564 44.384 109.284 46.7307 108.687 49.632L93.839 44.64C94.863 41.3973 96.4843 38.4533 98.703 35.808C101.007 33.0773 104.036 30.9013 107.791 29.28C111.631 27.5733 116.282 26.72 121.743 26.72C130.106 26.72 136.719 28.8107 141.583 32.992C146.447 37.1733 148.879 43.232 148.879 51.168V74.848C148.879 77.408 150.074 78.688 152.463 78.688H157.583V92H146.831C143.674 92 141.071 91.232 139.023 89.696C136.975 88.16 135.951 86.112 135.951 83.552V83.424H133.519C133.178 84.448 132.41 85.8133 131.215 87.52C130.02 89.1413 128.143 90.592 125.583 91.872C123.023 93.152 119.524 93.792 115.087 93.792ZM117.903 80.736C122.426 80.736 126.095 79.4987 128.911 77.024C131.812 74.464 133.263 71.0933 133.263 66.912V65.632H117.007C114.02 65.632 111.674 66.272 109.967 67.552C108.26 68.832 107.407 70.624 107.407 72.928C107.407 75.232 108.303 77.1093 110.095 78.56C111.887 80.0107 114.49 80.736 117.903 80.736ZM160.415 92V28.512H176.287V35.68H178.591C179.53 33.12 181.066 31.2427 183.199 30.048C185.418 28.8533 187.978 28.256 190.879 28.256H198.559V42.592H190.623C186.527 42.592 183.156 43.7013 180.511 45.92C177.866 48.0533 176.543 51.3813 176.543 55.904V92H160.415ZM202.205 117.6V28.512H218.077V36.192H220.381C221.832 33.7173 224.093 31.5413 227.165 29.664C230.237 27.7013 234.632 26.72 240.349 26.72C245.469 26.72 250.205 28 254.557 30.56C258.909 33.0347 262.408 36.704 265.053 41.568C267.698 46.432 269.021 52.32 269.021 59.232V61.28C269.021 68.192 267.698 74.08 265.053 78.944C262.408 83.808 258.909 87.52 254.557 90.08C250.205 92.5547 245.469 93.792 240.349 93.792C236.509 93.792 233.266 93.3227 230.621 92.384C228.061 91.5307 225.97 90.4213 224.349 89.056C222.813 87.6053 221.576 86.1547 220.637 84.704H218.333V117.6H202.205ZM235.485 79.712C240.52 79.712 244.658 78.1333 247.901 74.976C251.229 71.7333 252.893 67.04 252.893 60.896V59.616C252.893 53.472 251.229 48.8213 247.901 45.664C244.573 42.4213 240.434 40.8 235.485 40.8C230.536 40.8 226.397 42.4213 223.069 45.664C219.741 48.8213 218.077 53.472 218.077 59.616V60.896C218.077 67.04 219.741 71.7333 223.069 74.976C226.397 78.1333 230.536 79.712 235.485 79.712ZM274.87 92V28.512H290.998V92H274.87ZM282.934 21.088C280.033 21.088 277.558 20.1493 275.51 18.272C273.547 16.3947 272.566 13.92 272.566 10.848C272.566 7.776 273.547 5.30133 275.51 3.424C277.558 1.54666 280.033 0.607994 282.934 0.607994C285.921 0.607994 288.395 1.54666 290.358 3.424C292.321 5.30133 293.302 7.776 293.302 10.848C293.302 13.92 292.321 16.3947 290.358 18.272C288.395 20.1493 285.921 21.088 282.934 21.088ZM299.91 92V28.512H315.782V36.832H318.086C319.11 34.6133 321.03 32.5227 323.846 30.56C326.662 28.512 330.929 27.488 336.646 27.488C341.595 27.488 345.905 28.64 349.574 30.944C353.329 33.1627 356.23 36.2773 358.278 40.288C360.326 44.2133 361.35 48.8213 361.35 54.112V92H345.222V55.392C345.222 50.6133 344.027 47.0293 341.638 44.64C339.334 42.2507 336.006 41.056 331.654 41.056C326.705 41.056 322.865 42.72 320.134 46.048C317.403 49.2907 316.038 53.856 316.038 59.744V92H299.91ZM369.825 92V28.512H385.697V36.832H388.001C389.025 34.6133 390.945 32.5227 393.761 30.56C396.577 28.512 400.844 27.488 406.561 27.488C411.51 27.488 415.82 28.64 419.489 30.944C423.244 33.1627 426.145 36.2773 428.193 40.288C430.241 44.2133 431.265 48.8213 431.265 54.112V92H415.137V55.392C415.137 50.6133 413.942 47.0293 411.553 44.64C409.249 42.2507 405.921 41.056 401.569 41.056C396.62 41.056 392.78 42.72 390.049 46.048C387.318 49.2907 385.953 53.856 385.953 59.744V92H369.825ZM436.668 60.512V58.464C436.668 51.808 437.991 46.1333 440.636 41.44C443.281 36.6613 446.78 33.0347 451.132 30.56C455.569 28 460.391 26.72 465.596 26.72C471.399 26.72 475.793 27.744 478.78 29.792C481.767 31.84 483.943 33.9733 485.308 36.192H487.612V28.512H503.484V103.264C503.484 107.616 502.204 111.072 499.644 113.632C497.084 116.277 493.671 117.6 489.404 117.6H446.908V103.52H483.772C486.161 103.52 487.356 102.24 487.356 99.68V83.168H485.052C484.199 84.5333 483.004 85.9413 481.468 87.392C479.932 88.7573 477.884 89.9093 475.324 90.848C472.764 91.7867 469.521 92.256 465.596 92.256C460.391 92.256 455.569 91.0187 451.132 88.544C446.78 85.984 443.281 82.3573 440.636 77.664C437.991 72.8853 436.668 67.168 436.668 60.512ZM470.204 78.176C475.153 78.176 479.292 76.5973 482.62 73.44C485.948 70.2827 487.612 65.8453 487.612 60.128V58.848C487.612 53.0453 485.948 48.608 482.62 45.536C479.377 42.3787 475.239 40.8 470.204 40.8C465.255 40.8 461.116 42.3787 457.788 45.536C454.46 48.608 452.796 53.0453 452.796 58.848V60.128C452.796 65.8453 454.46 70.2827 457.788 73.44C461.116 76.5973 465.255 78.176 470.204 78.176ZM542.857 117.6V103.52H577.417C579.806 103.52 581.001 102.24 581.001 99.68V83.68H578.697C578.014 85.1307 576.948 86.5813 575.497 88.032C574.046 89.4827 572.084 90.6773 569.609 91.616C567.134 92.5547 563.977 93.024 560.137 93.024C555.188 93.024 550.836 91.9147 547.081 89.696C543.412 87.392 540.553 84.2347 538.505 80.224C536.457 76.2133 535.433 71.6053 535.433 66.4V28.512H551.561V65.12C551.561 69.8987 552.713 73.4827 555.017 75.872C557.406 78.2613 560.777 79.456 565.129 79.456C570.078 79.456 573.918 77.8347 576.649 74.592C579.38 71.264 580.745 66.656 580.745 60.768V28.512H596.873V103.264C596.873 107.616 595.593 111.072 593.033 113.632C590.473 116.277 587.06 117.6 582.793 117.6H542.857ZM636.068 93.792C629.753 93.792 624.079 92.512 619.044 89.952C614.009 87.392 610.041 83.68 607.14 78.816C604.239 73.952 602.788 68.1067 602.788 61.28V59.232C602.788 52.4053 604.239 46.56 607.14 41.696C610.041 36.832 614.009 33.12 619.044 30.56C624.079 28 629.753 26.72 636.068 26.72C642.383 26.72 648.057 28 653.092 30.56C658.127 33.12 662.095 36.832 664.996 41.696C667.897 46.56 669.348 52.4053 669.348 59.232V61.28C669.348 68.1067 667.897 73.952 664.996 78.816C662.095 83.68 658.127 87.392 653.092 89.952C648.057 92.512 642.383 93.792 636.068 93.792ZM636.068 79.456C641.017 79.456 645.113 77.8773 648.356 74.72C651.599 71.4773 653.22 66.8693 653.22 60.896V59.616C653.22 53.6427 651.599 49.0773 648.356 45.92C645.199 42.6773 641.103 41.056 636.068 41.056C631.119 41.056 627.023 42.6773 623.78 45.92C620.537 49.0773 618.916 53.6427 618.916 59.616V60.896C618.916 66.8693 620.537 71.4773 623.78 74.72C627.023 77.8773 631.119 79.456 636.068 79.456ZM699.467 93.024C694.518 93.024 690.166 91.9147 686.411 89.696C682.742 87.392 679.883 84.2347 677.835 80.224C675.787 76.2133 674.763 71.6053 674.763 66.4V28.512H690.891V65.12C690.891 69.8987 692.043 73.4827 694.347 75.872C696.736 78.2613 700.107 79.456 704.459 79.456C709.408 79.456 713.248 77.8347 715.979 74.592C718.71 71.264 720.075 66.656 720.075 60.768V28.512H736.203V92H720.331V83.68H718.027C717.003 85.8133 715.083 87.904 712.267 89.952C709.451 92 705.184 93.024 699.467 93.024ZM793.05 92C788.869 92 785.455 90.72 782.81 88.16C780.25 85.5147 778.97 82.016 778.97 77.664V41.824H763.098V28.512H778.97V8.8H795.098V28.512H812.506V41.824H795.098V74.848C795.098 77.408 796.293 78.688 798.682 78.688H810.97V92H793.05ZM846.103 93.792C839.788 93.792 834.114 92.512 829.079 89.952C824.044 87.392 820.076 83.68 817.175 78.816C814.274 73.952 812.823 68.1067 812.823 61.28V59.232C812.823 52.4053 814.274 46.56 817.175 41.696C820.076 36.832 824.044 33.12 829.079 30.56C834.114 28 839.788 26.72 846.103 26.72C852.418 26.72 858.092 28 863.127 30.56C868.162 33.12 872.13 36.832 875.031 41.696C877.932 46.56 879.383 52.4053 879.383 59.232V61.28C879.383 68.1067 877.932 73.952 875.031 78.816C872.13 83.68 868.162 87.392 863.127 89.952C858.092 92.512 852.418 93.792 846.103 93.792ZM846.103 79.456C851.052 79.456 855.148 77.8773 858.391 74.72C861.634 71.4773 863.255 66.8693 863.255 60.896V59.616C863.255 53.6427 861.634 49.0773 858.391 45.92C855.234 42.6773 851.138 41.056 846.103 41.056C841.154 41.056 837.058 42.6773 833.815 45.92C830.572 49.0773 828.951 53.6427 828.951 59.616V60.896C828.951 66.8693 830.572 71.4773 833.815 74.72C837.058 77.8773 841.154 79.456 846.103 79.456Z" fill="url(#paint0_linear_5_3)"/>
<defs>
<linearGradient id="paint0_linear_5_3" x1="523" y1="47" x2="522.935" y2="92" gradientUnits="userSpaceOnUse">
<stop stop-color="#17202A"/>
<stop offset="0.065" stop-color="#29333F"/>
<stop offset="0.085" stop-color="#3A4754"/>
<stop offset="0.23" stop-color="#5D6D7E"/>
<stop offset="1" stop-color="#D5D8DC"/>
</linearGradient>
</defs>
</svg>
