<svg width="47" height="42" viewBox="0 0 47 42" fill="none" xmlns="http://www.w3.org/2000/svg">
<path d="M23.5 18.9C26.6163 18.9 29.605 20.0062 31.8085 21.9754C34.0121 23.9445 35.25 26.6152 35.25 29.4V42H30.55V29.4C30.5501 27.7931 29.863 26.2468 28.6294 25.0777C27.3957 23.9085 25.7087 23.2048 23.9136 23.1105L23.5 23.1C21.7018 23.0999 19.9714 23.7139 18.6631 24.8163C17.3547 25.9187 16.5672 27.4262 16.4618 29.0304L16.45 29.4V42H11.75V29.4C11.75 26.6152 12.9879 23.9445 15.1915 21.9754C17.395 20.0062 20.3837 18.9 23.5 18.9ZM8.225 25.2C8.883 25.2014 9.5175 25.2672 10.1285 25.3974C9.72818 26.4667 9.49027 27.5791 9.42115 28.7049L9.4 29.4V29.5806C9.12982 29.4944 8.84888 29.438 8.5634 29.4126L8.225 29.4C7.34909 29.4 6.50456 29.6914 5.85595 30.2174C5.20734 30.7435 4.80112 31.4664 4.71645 32.2455L4.7 32.55V42H0V32.55C0 30.6007 0.86656 28.7312 2.40905 27.3528C3.95153 25.9744 6.04359 25.2 8.225 25.2ZM38.775 25.2C40.9564 25.2 43.0485 25.9744 44.591 27.3528C46.1334 28.7312 47 30.6007 47 32.55V42H42.3V32.55C42.3 31.7673 41.9739 31.0126 41.3853 30.433C40.7966 29.8534 39.9876 29.4904 39.1157 29.4147L38.775 29.4C38.3614 29.4014 37.9697 29.4609 37.6 29.5785V29.4C37.6 28.0014 37.3462 26.6574 36.8762 25.4016C37.4825 25.2693 38.1217 25.2 38.775 25.2ZM8.225 12.6C9.78315 12.6 11.2775 13.1531 12.3793 14.1377C13.481 15.1223 14.1 16.4576 14.1 17.85C14.1 19.2424 13.481 20.5777 12.3793 21.5623C11.2775 22.5469 9.78315 23.1 8.225 23.1C6.66685 23.1 5.17252 22.5469 4.07075 21.5623C2.96897 20.5777 2.35 19.2424 2.35 17.85C2.35 16.4576 2.96897 15.1223 4.07075 14.1377C5.17252 13.1531 6.66685 12.6 8.225 12.6ZM38.775 12.6C40.3331 12.6 41.8275 13.1531 42.9292 14.1377C44.031 15.1223 44.65 16.4576 44.65 17.85C44.65 19.2424 44.031 20.5777 42.9292 21.5623C41.8275 22.5469 40.3331 23.1 38.775 23.1C37.2169 23.1 35.7225 22.5469 34.6207 21.5623C33.519 20.5777 32.9 19.2424 32.9 17.85C32.9 16.4576 33.519 15.1223 34.6207 14.1377C35.7225 13.1531 37.2169 12.6 38.775 12.6ZM8.225 16.8C7.91337 16.8 7.6145 16.9106 7.39415 17.1075C7.17379 17.3044 7.05 17.5715 7.05 17.85C7.05 18.1285 7.17379 18.3955 7.39415 18.5925C7.6145 18.7894 7.91337 18.9 8.225 18.9C8.53663 18.9 8.83549 18.7894 9.05585 18.5925C9.27621 18.3955 9.4 18.1285 9.4 17.85C9.4 17.5715 9.27621 17.3044 9.05585 17.1075C8.83549 16.9106 8.53663 16.8 8.225 16.8ZM38.775 16.8C38.4634 16.8 38.1645 16.9106 37.9441 17.1075C37.7238 17.3044 37.6 17.5715 37.6 17.85C37.6 18.1285 37.7238 18.3955 37.9441 18.5925C38.1645 18.7894 38.4634 18.9 38.775 18.9C39.0866 18.9 39.3855 18.7894 39.6059 18.5925C39.8262 18.3955 39.95 18.1285 39.95 17.85C39.95 17.5715 39.8262 17.3044 39.6059 17.1075C39.3855 16.9106 39.0866 16.8 38.775 16.8ZM23.5 0C25.993 0 28.384 0.884998 30.1468 2.4603C31.9096 4.03561 32.9 6.17218 32.9 8.4C32.9 10.6278 31.9096 12.7644 30.1468 14.3397C28.384 15.915 25.993 16.8 23.5 16.8C21.007 16.8 18.616 15.915 16.8532 14.3397C15.0904 12.7644 14.1 10.6278 14.1 8.4C14.1 6.17218 15.0904 4.03561 16.8532 2.4603C18.616 0.884998 21.007 0 23.5 0ZM23.5 4.2C22.2535 4.2 21.058 4.6425 20.1766 5.43015C19.2952 6.2178 18.8 7.28609 18.8 8.4C18.8 9.51391 19.2952 10.5822 20.1766 11.3698C21.058 12.1575 22.2535 12.6 23.5 12.6C24.7465 12.6 25.942 12.1575 26.8234 11.3698C27.7048 10.5822 28.2 9.51391 28.2 8.4C28.2 7.28609 27.7048 6.2178 26.8234 5.43015C25.942 4.6425 24.7465 4.2 23.5 4.2Z" fill="white"/>
</svg>
